HIERARCHY
ROOT Hips
{
    OFFSET   0.000000   0.000000   0.000000
    CHANNELS 6 Xposition Yposition Zposition Zrotation Xrotation Yrotation
    JOINT Chest
    {
        OFFSET   0.000000   8.007230   0.000000
        CHANNELS 3 Zrotation Xrotation Yrotation
        JOINT Chest2
        {
            OFFSET   0.000000  22.077100   0.000000
            CHANNELS 3 Zrotation Xrotation Yrotation
            JOINT Neck
            {
                OFFSET   0.000000  23.254800  -0.000021
                CHANNELS 3 Zrotation Xrotation Yrotation
                JOINT Head
                {
                    OFFSET   0.000000  14.370000   1.956610
                    CHANNELS 3 Zrotation Xrotation Yrotation
                    End Site
                    {
                        OFFSET   0.000000  19.566000   0.000000
                    }
                }
            }
            JOINT LeftCollar
            {
                OFFSET   3.911900  19.017000  -0.467063
                CHANNELS 3 Zrotation Xrotation Yrotation
                JOINT LeftShoulder
                {
                    OFFSET  10.383700   0.000000   0.000000
                    CHANNELS 3 Zrotation Xrotation Yrotation
                    JOINT LeftElbow
                    {
                        OFFSET  26.662100   0.001529   0.000325
                        CHANNELS 3 Zrotation Xrotation Yrotation
                        JOINT LeftWrist
                        {
                            OFFSET  28.869000  -0.000011  -0.000096
                            CHANNELS 3 Zrotation Xrotation Yrotation
                            JOINT LeftFinger0
                            {
                                OFFSET   2.044650  -2.323460   3.252850
                                CHANNELS 3 Zrotation Xrotation Yrotation
                                JOINT LeftFinger01
                                {
                                    OFFSET   3.088130   0.000000   0.000000
                                    CHANNELS 3 Zrotation Xrotation Yrotation
                                    JOINT LeftFinger02
                                    {
                                        OFFSET   2.639460   0.000000   0.000000
                                        CHANNELS 3 Zrotation Xrotation Yrotation
                                        End Site
                                        {
                                            OFFSET   2.582190   0.000000   0.000000
                                        }
                                    }
                                }
                            }
                            JOINT LeftFinger1
                            {
                                OFFSET   8.364480   0.000000   3.252850
                                CHANNELS 3 Zrotation Xrotation Yrotation
                                JOINT LeftFinger11
                                {
                                    OFFSET   4.646930   0.000000   0.000000
                                    CHANNELS 3 Zrotation Xrotation Yrotation
                                    JOINT LeftFinger12
                                    {
                                        OFFSET   2.323460   0.000000   0.000000
                                        CHANNELS 3 Zrotation Xrotation Yrotation
                                        End Site
                                        {
                                            OFFSET   2.273050   0.000000   0.000000
                                        }
                                    }
                                }
                            }
                            JOINT LeftFinger2
                            {
                                OFFSET   8.364480   0.000016   1.078090
                                CHANNELS 3 Zrotation Xrotation Yrotation
                                JOINT LeftFinger21
                                {
                                    OFFSET   5.111620   0.000000   0.000000
                                    CHANNELS 3 Zrotation Xrotation Yrotation
                                    JOINT LeftFinger22
                                    {
                                        OFFSET   2.788160   0.000017   0.000000
                                        CHANNELS 3 Zrotation Xrotation Yrotation
                                        End Site
                                        {
                                            OFFSET   2.727660   0.000000   0.000000
                                        }
                                    }
                                }
                            }
                            JOINT LeftFinger3
                            {
                                OFFSET   7.899780   0.000015  -1.078090
                                CHANNELS 3 Zrotation Xrotation Yrotation
                                JOINT LeftFinger31
                                {
                                    OFFSET   4.646920   0.000000   0.000000
                                    CHANNELS 3 Zrotation Xrotation Yrotation
                                    JOINT LeftFinger32
                                    {
                                        OFFSET   2.323470   0.000000   0.000000
                                        CHANNELS 3 Zrotation Xrotation Yrotation
                                        End Site
                                        {
                                            OFFSET   2.273050   0.000000   0.000000
                                        }
                                    }
                                }
                            }
                            JOINT LeftFinger4
                            {
                                OFFSET   7.435090   0.000000  -3.252850
                                CHANNELS 3 Zrotation Xrotation Yrotation
                                JOINT LeftFinger41
                                {
                                    OFFSET   3.717550   0.000000   0.000000
                                    CHANNELS 3 Zrotation Xrotation Yrotation
                                    JOINT LeftFinger42
                                    {
                                        OFFSET   1.858760   0.000000   0.000000
                                        CHANNELS 3 Zrotation Xrotation Yrotation
                                        End Site
                                        {
                                            OFFSET   1.818440   0.000000   0.000000
                                        }
                                    }
                                }
                            }
                        }
                    }
                }
            }
            JOINT RightCollar
            {
                OFFSET  -3.911900  19.017000  -0.467062
                CHANNELS 3 Zrotation Xrotation Yrotation
                JOINT RightShoulder
                {
                    OFFSET -10.383700   0.000015   0.000000
                    CHANNELS 3 Zrotation Xrotation Yrotation
                    JOINT RightElbow
                    {
                        OFFSET -26.662100   0.001341   0.000385
                        CHANNELS 3 Zrotation Xrotation Yrotation
                        JOINT RightWrist
                        {
                            OFFSET -28.869000   0.000025  -0.000080
                            CHANNELS 3 Zrotation Xrotation Yrotation
                            JOINT RightFinger0
                            {
                                OFFSET  -2.044650  -2.323490   3.252850
                                CHANNELS 3 Zrotation Xrotation Yrotation
                                JOINT RightFinger01
                                {
                                    OFFSET  -3.088130   0.000000   0.000000
                                    CHANNELS 3 Zrotation Xrotation Yrotation
                                    JOINT RightFinger02
                                    {
                                        OFFSET  -2.639460   0.000000   0.000000
                                        CHANNELS 3 Zrotation Xrotation Yrotation
                                        End Site
                                        {
                                            OFFSET  -2.582190   0.000000   0.000000
                                        }
                                    }
                                }
                            }
                            JOINT RightFinger1
                            {
                                OFFSET  -8.364480   0.000000   3.252850
                                CHANNELS 3 Zrotation Xrotation Yrotation
                                JOINT RightFinger11
                                {
                                    OFFSET  -4.646930   0.000000   0.000000
                                    CHANNELS 3 Zrotation Xrotation Yrotation
                                    JOINT RightFinger12
                                    {
                                        OFFSET  -2.323470   0.000000   0.000000
                                        CHANNELS 3 Zrotation Xrotation Yrotation
                                        End Site
                                        {
                                            OFFSET  -2.273050   0.000000   0.000000
                                        }
                                    }
                                }
                            }
                            JOINT RightFinger2
                            {
                                OFFSET  -8.364480   0.000000   1.078090
                                CHANNELS 3 Zrotation Xrotation Yrotation
                                JOINT RightFinger21
                                {
                                    OFFSET  -5.111610   0.000000   0.000000
                                    CHANNELS 3 Zrotation Xrotation Yrotation
                                    JOINT RightFinger22
                                    {
                                        OFFSET  -2.788160   0.000000   0.000000
                                        CHANNELS 3 Zrotation Xrotation Yrotation
                                        End Site
                                        {
                                            OFFSET  -2.727660   0.000000   0.000000
                                        }
                                    }
                                }
                            }
                            JOINT RightFinger3
                            {
                                OFFSET  -7.899780   0.000000  -1.078090
                                CHANNELS 3 Zrotation Xrotation Yrotation
                                JOINT RightFinger31
                                {
                                    OFFSET  -4.646920   0.000000   0.000000
                                    CHANNELS 3 Zrotation Xrotation Yrotation
                                    JOINT RightFinger32
                                    {
                                        OFFSET  -2.323470   0.000000   0.000000
                                        CHANNELS 3 Zrotation Xrotation Yrotation
                                        End Site
                                        {
                                            OFFSET  -2.273050   0.000000   0.000000
                                        }
                                    }
                                }
                            }
                            JOINT RightFinger4
                            {
                                OFFSET  -7.435090   0.000000  -3.252850
                                CHANNELS 3 Zrotation Xrotation Yrotation
                                JOINT RightFinger41
                                {
                                    OFFSET  -3.717550   0.000000   0.000000
                                    CHANNELS 3 Zrotation Xrotation Yrotation
                                    JOINT RightFinger42
                                    {
                                        OFFSET  -1.858770   0.000000   0.000000
                                        CHANNELS 3 Zrotation Xrotation Yrotation
                                        End Site
                                        {
                                            OFFSET  -1.818440   0.000000   0.000000
                                        }
                                    }
                                }
                            }
                        }
                    }
                }
            }
        }
    }
    JOINT LeftHip
    {
        OFFSET   9.783010   0.000000   0.000000
        CHANNELS 3 Zrotation Xrotation Yrotation
        JOINT LeftKnee
        {
            OFFSET   0.000070 -41.789100   0.000028
            CHANNELS 3 Zrotation Xrotation Yrotation
            JOINT LeftAnkle
            {
                OFFSET   0.000087 -41.133200  -0.000100
                CHANNELS 3 Zrotation Xrotation Yrotation
                JOINT LeftToe
                {
                    OFFSET   0.000000  -6.358960  14.674500
                    CHANNELS 3 Zrotation Xrotation Yrotation
                    End Site
                    {
                        OFFSET   0.000000   0.000000   3.913200
                    }
                }
            }
        }
    }
    JOINT RightHip
    {
        OFFSET  -9.783020   0.000000   0.000000
        CHANNELS 3 Zrotation Xrotation Yrotation
        JOINT RightKnee
        {
            OFFSET   0.000044 -41.789100  -0.000870
            CHANNELS 3 Zrotation Xrotation Yrotation
            JOINT RightAnkle
            {
                OFFSET  -0.000090 -41.133200  -0.000245
                CHANNELS 3 Zrotation Xrotation Yrotation
                JOINT RightToe
                {
                    OFFSET   0.000000  -6.358960  14.674500
                    CHANNELS 3 Zrotation Xrotation Yrotation
                    End Site
                    {
                        OFFSET   0.000000   0.000000   3.913200
                    }
                }
            }
        }
    }
}
MOTION
Frames: 5
Frame Time:   0.016667
  0.499590  89.553700   0.150102  -1.125400  -3.470270   1.006330   0.787348   1.757750  -1.123570   1.610160   3.499500  -2.272800  -0.748462   1.808750   0.024356  -1.232890   3.666260   2.115440  -1.399640   2.760690   8.904920 -81.578600   3.237580   4.202580   1.571800   5.816960 -15.774900   8.751650  -9.961980  -4.950950  44.738800  36.239600 -59.908600 -27.552200  -0.002063   0.000000  -8.776110  -0.000860  -0.000000 -32.028100   1.248950  -1.995530 -26.222700   0.011344  -0.001478 -18.355900  -0.006308   0.000000 -31.966800   1.246800  -1.996890 -47.982900  -0.002356  -0.000883 -31.956600   0.004233  -0.001332 -28.373000  -3.853830   7.096160 -37.451500   0.001883   0.001336 -24.942700  -0.001427   0.001071 -33.662100  -6.824250  10.116500 -51.400200   0.000129   0.000075 -34.232600  -0.000195   0.000451   3.681830   4.098930   6.450670  75.049200  -4.785110  -3.142510   3.409200  -4.447370  10.631200 -18.807100  -5.433000   3.055080 -42.524600  38.544500  81.223000  14.996200   0.000507  -0.002608   2.498100   0.000185  -0.002561  27.767500  -1.138860  -2.161820  22.736400  -0.002778  -0.000135  15.915500  -0.001907   0.000462  27.524900  -1.129380  -2.166800  29.390900  -0.001851   0.008850  19.574300  -0.003306   0.002279  27.794900  -2.437540  -4.614830  31.268100  -0.008400   0.002840  20.824600  -0.005135   0.001599  34.838100  -2.986280  -4.280670  52.424500  -0.001825   0.011339  34.914800  -0.001696   0.011274   1.917400   4.287370  -1.072500   0.259426   0.787843   8.695590  -1.127300  -2.019990  -1.071800  -0.000000   0.000000   0.000000   0.711431   4.135970  -4.256440  -1.056930   3.644260 -12.163900  -0.022682  -3.897010  -2.302410  -0.000000   0.000000   0.000000
  0.499601  89.553700   0.145188  -1.123330  -3.499040   1.006170   0.787574   1.794270  -1.122920   1.611350   3.572560  -2.271980  -0.755728   1.809380   0.024334  -1.244950   3.667440   2.122430  -1.409090   2.737440   8.908160 -81.555800   3.297550   4.166720   1.568100   5.794950 -15.804100   8.732730  -9.991560  -4.984690  44.728900  36.232800 -59.993700 -27.560200  -0.002073  -0.000019  -8.780250  -0.000870  -0.000000 -32.037400   1.273860  -2.034580 -26.231000   0.011362  -0.001479 -18.361700  -0.006314   0.000000 -32.002500   1.272850  -2.035220 -48.037500  -0.002347  -0.000863 -31.993000   0.004231  -0.001316 -28.377900  -3.834280   7.059060 -37.490300   0.001883   0.001343 -24.968500  -0.001421   0.001075 -33.688200  -6.807340  10.082400 -51.434000   0.000132   0.000074 -34.255100  -0.000200   0.000459   3.674450   4.061290   6.458180  75.039000  -4.755060  -3.122640   3.419910  -4.425160  10.681500 -18.827800  -5.430370   3.060520 -42.520500  38.542400  81.223200  15.015400   0.000511  -0.002601   2.507700   0.000182  -0.002555  27.783500  -1.135450  -2.154040  22.749400  -0.002770  -0.000139  15.924600  -0.001904   0.000457  27.525700  -1.125690  -2.159410  29.407400  -0.001849   0.008846  19.585300  -0.003306   0.002276  27.793800  -2.445880  -4.630100  31.285700  -0.008402   0.002837  20.836300  -0.005136   0.001597  34.848500  -2.997050  -4.294380  52.441400  -0.001822   0.011331  34.926000  -0.001701   0.011277   1.909690   4.307860  -1.072520   0.257272   0.804385   8.695620  -1.127660  -2.028420  -1.071690  -0.000000   0.000000   0.000000   0.713400   4.170950  -4.258340  -1.060460   3.644790 -12.163400  -0.023200  -3.896420  -2.302250  -0.000000   0.000000   0.000000
  0.499628  89.553700   0.137272  -1.120260  -3.547190   1.006040   0.787903   1.853430  -1.119080   1.613140   3.690930  -2.265330  -0.766871   1.813790   0.024313  -1.263390   3.675760   2.134660  -1.425630   2.702680   8.911310 -81.514300   3.392530   4.111060   1.561020   5.764620 -15.863200   8.701560 -10.036100  -5.036000  44.725000  36.251400 -60.111400 -27.568800  -0.002103  -0.000076  -8.784420  -0.000890   0.000000 -32.046700   1.298780  -2.073630 -26.239300   0.011410  -0.001485 -18.367500  -0.006332   0.000000 -32.050100   1.298890  -2.073560 -48.110500  -0.002320  -0.000813 -32.041600   0.004228  -0.001278 -28.382800  -3.814730   7.021970 -37.529200   0.001885   0.001362 -24.994400  -0.001403   0.001087 -33.714200  -6.790420  10.048200 -51.467700   0.000140   0.000069 -34.277500  -0.000220   0.000488   3.662160   4.001260   6.465520  75.022600  -4.695330  -3.087600   3.435840  -4.394350  10.758400 -18.848900  -5.420580   3.065930 -42.512600  38.537300  81.221600  15.042100   0.000515  -0.002587   2.521050   0.000177  -0.002535  27.799700  -1.129120  -2.140440  22.762400  -0.002749  -0.000150  15.933700  -0.001893   0.000446  27.526700  -1.118850  -2.145950  29.424000  -0.001840   0.008835  19.596400  -0.003306   0.002270  27.792800  -2.454220  -4.645370  31.303200  -0.008406   0.002826  20.848000  -0.005138   0.001593  34.858900  -3.007820  -4.308080  52.458200  -0.001816   0.011311  34.937200  -0.001718   0.011283   1.899290   4.345860  -1.072570   0.255119   0.820926   8.695630  -1.128010  -2.036850  -1.071490  -0.000000   0.000000  -0.000000   0.715665   4.205970  -4.264200  -1.068530   3.648480 -12.160300  -0.023702  -3.895410  -2.302080   0.000000   0.000000   0.000000
  0.499683  89.553400   0.131456  -1.118620  -3.586910   1.006130   0.788052   1.897710  -1.109240   1.614060   3.779610  -2.246430  -0.773195   1.824500   0.024637  -1.273780   3.697460   2.146110  -1.441080   2.683700   8.899470 -81.471400   3.457130   4.076030   1.549320   5.753840 -15.935000   8.671930 -10.062700  -5.072430  44.779700  36.331800 -60.192000 -27.569400  -0.002151  -0.000176  -8.784430  -0.000911  -0.000071 -32.031400   1.290600  -2.061920 -26.226500   0.011489  -0.001498 -18.358600  -0.006366  -0.000000 -32.060900   1.291270  -2.061640 -48.126500  -0.002272  -0.000736 -32.052200   0.004226  -0.001218 -28.380200  -3.824520   7.040890 -37.504400   0.001888   0.001392 -24.978000  -0.001374   0.001106 -33.708700  -6.795670  10.058100 -51.460700   0.000153   0.000032 -34.272800  -0.000265   0.000551   3.652730   3.959940   6.452380  75.010400  -4.625090  -3.052490   3.445450  -4.382410  10.804400 -18.839300  -5.403290   3.061730 -42.496300  38.526600  81.211200  15.052900   0.000513  -0.002568   2.526450   0.000172  -0.002501  27.799300  -1.123860  -2.130350  22.761800  -0.002721  -0.000167  15.933300  -0.001876   0.000428  27.523900  -1.112510  -2.133940  29.414700  -0.001820   0.008818  19.590200  -0.003306   0.002260  27.791600  -2.453590  -4.644180  31.302800  -0.008411   0.002807  20.847700  -0.005142   0.001591  34.858800  -3.007040  -4.306980  52.457900  -0.001806   0.011281  34.937000  -0.001748   0.011294   1.895870   4.386130  -1.070490   0.254924   0.818937   8.695440  -1.127790  -2.036610  -1.071260   0.000000   0.000000   0.000000   0.717225   4.205940  -4.275840  -1.075370   3.682610 -12.148300  -0.021298  -3.894360  -2.302500  -0.000000   0.000000   0.000000
  0.499722  89.552800   0.126080  -1.117320  -3.625310   1.006500   0.788152   1.938880  -1.098040   1.614740   3.862120  -2.224590  -0.779505   1.841320   0.025163  -1.284210   3.732080   2.157420  -1.455700   2.668830   8.887660 -81.429500   3.517560   4.044250   1.533990   5.750340 -16.013700   8.653890 -10.081600  -5.091410  44.828500  36.386600 -60.240000 -27.569700  -0.002209  -0.000305  -8.784450  -0.000937  -0.000186 -32.016100   1.281830  -2.049030 -26.213700   0.011588  -0.001512 -18.349600  -0.006410   0.000000 -32.067100   1.283650  -2.047900 -48.135000  -0.002211  -0.000642 -32.057900   0.004226  -0.001145 -28.377300  -3.835640   7.061790 -37.479700   0.001891   0.001432 -24.961500  -0.001337   0.001131 -33.702200  -6.803710  10.071900 -51.453600   0.000170   0.000000 -34.268100  -0.000318   0.000622   3.643600   3.919890   6.432130  74.999200  -4.547760  -3.021110   3.451340  -4.378650  10.844100 -18.824300  -5.375690   3.057490 -42.491700  38.519000  81.202600  15.056200   0.000509  -0.002545   2.528100   0.000167  -0.002455  27.794400  -1.115560  -2.115240  22.757700  -0.002685  -0.000188  15.930400  -0.001855   0.000406  27.518000  -1.104140  -2.118290  29.392200  -0.001795   0.008796  19.575200  -0.003305   0.002249  27.788900  -2.449140  -4.635840  31.300100  -0.008417   0.002782  20.845800  -0.005147   0.001589  34.857800  -3.001540  -4.299310  52.455800  -0.001793   0.011241  34.935600  -0.001788   0.011307   1.895490   4.427470  -1.068420   0.255115   0.814524   8.694240  -1.127560  -2.034930  -1.071120  -0.000000   0.000000   0.000000   0.720202   4.205910  -4.288470  -1.081150   3.728610 -12.132900  -0.018201  -3.893710  -2.305490  -0.000000   0.000000  -0.000000
